<?xml version="1.0" standalone="no"?>
<!DOCTYPE svg PUBLIC "-//W3C//DTD SVG 20010904//EN"
 "http://www.w3.org/TR/2001/REC-SVG-20010904/DTD/svg10.dtd">
<svg version="1.0" xmlns="http://www.w3.org/2000/svg"
 width="249.000000pt" height="253.000000pt" viewBox="0 0 249.000000 253.000000"
 preserveAspectRatio="xMidYMid meet">

<g transform="translate(0.000000,253.000000) scale(0.100000,-0.100000)"
fill="#000000" stroke="none">
<path d="M1155 2341 c-50 -9 -79 -25 -99 -53 -61 -87 61 -162 213 -132 54 11
34 24 -37 24 -40 0 -73 5 -80 12 -7 7 -12 34 -12 60 0 43 3 50 26 58 14 6 48
10 75 10 37 0 49 4 49 15 0 16 -58 19 -135 6z"/>
<path d="M1400 2283 c-75 -30 -62 -110 23 -142 85 -32 180 18 148 78 -25 46
-124 83 -171 64z m98 -60 c2 -22 -3 -38 -18 -53 -41 -41 -79 15 -49 71 7 14
19 19 37 17 22 -2 28 -9 30 -35z"/>
<path d="M1649 2213 c-27 -33 -60 -103 -54 -113 10 -17 32 -11 47 12 15 22 15
22 22 -15 9 -49 33 -61 81 -41 36 15 37 14 30 -3 -12 -30 -11 -47 5 -50 18 -4
73 97 68 124 -4 24 -42 28 -83 9 -18 -9 -35 -16 -38 -16 -2 0 -7 19 -10 42 -3
23 -14 48 -23 55 -23 17 -28 16 -45 -4z"/>
<path d="M756 2187 c-69 -37 -86 -59 -70 -84 8 -13 25 -18 59 -18 59 0 67 -15
20 -38 -19 -9 -35 -21 -35 -27 0 -16 12 -12 73 20 89 49 87 100 -4 100 -58 0
-63 14 -14 37 19 9 35 23 35 30 0 16 5 18 -64 -20z"/>
<path d="M1216 2092 c-3 -3 -41 -6 -83 -7 -52 -2 -97 -10 -133 -24 -40 -15
-46 -20 -22 -16 17 2 32 1 32 -3 0 -14 -42 -43 -55 -38 -9 3 -12 0 -9 -8 3 -8
-4 -15 -20 -18 -14 -3 -27 0 -29 6 -2 6 -16 -2 -31 -17 -14 -15 -30 -26 -35
-23 -13 9 -73 -14 -98 -37 -35 -31 -27 -40 15 -18 40 20 106 28 134 16 12 -5
28 1 47 16 109 87 182 121 246 113 14 -1 27 2 31 7 7 12 113 10 139 -2 15 -7
13 -8 -12 -3 -25 4 -32 1 -36 -13 -4 -17 -5 -17 -6 1 -1 16 -3 16 -22 -5 -14
-17 -22 -20 -25 -11 -3 6 -13 12 -22 12 -15 0 -15 -2 -2 -10 13 -8 12 -10 -2
-10 -10 0 -18 4 -18 9 0 6 -19 9 -41 9 -24 0 -36 -4 -29 -8 8 -5 2 -10 -19
-15 -32 -7 -42 -29 -16 -39 8 -3 28 0 45 5 16 6 35 9 42 6 8 -3 6 -6 -5 -6
-23 -1 -12 -21 12 -21 9 0 27 -9 38 -19 12 -11 24 -17 27 -14 3 4 6 1 6 -5 0
-6 11 -9 25 -6 14 2 25 0 25 -6 0 -9 -21 -14 -42 -11 -4 0 -3 -11 2 -25 9 -21
8 -25 -4 -21 -20 8 -76 -14 -76 -30 0 -6 9 -15 20 -18 11 -3 20 -10 20 -14 0
-14 81 -6 90 8 6 11 9 10 13 -5 4 -16 5 -17 6 -1 0 9 7 17 14 17 8 0 7 4 -3
10 -10 6 -11 10 -3 10 18 0 53 -32 53 -47 0 -19 18 -16 23 5 4 16 5 16 6 0 0
-10 7 -19 14 -20 6 0 17 -2 22 -3 6 -2 16 -3 23 -4 6 0 12 -6 12 -11 0 -7 -13
-8 -35 -4 -21 4 -35 2 -35 -4 0 -12 29 -24 41 -16 5 3 9 -2 9 -11 0 -13 -9
-15 -52 -10 -29 4 -59 8 -65 10 -9 3 -13 -6 -13 -25 0 -17 3 -30 8 -30 4 0 13
-9 20 -20 17 -28 7 -25 -23 8 -18 19 -24 34 -20 50 3 12 1 22 -5 22 -5 0 -10
-4 -10 -9 0 -15 -41 -24 -53 -12 -8 8 -6 11 6 11 9 0 17 4 17 9 0 5 -11 9 -25
9 -19 0 -24 -5 -22 -22 1 -13 -3 -20 -12 -18 -7 1 -21 -7 -31 -18 -20 -23 -42
-28 -77 -16 -17 5 -23 3 -23 -8 0 -8 10 -18 23 -22 29 -10 89 -6 101 6 6 6 20
10 33 10 13 0 23 5 23 10 0 6 7 10 15 10 8 0 15 -4 15 -10 0 -5 -7 -10 -15
-10 -18 0 -20 -37 -3 -42 10 -4 9 -11 -2 -34 -8 -16 -16 -32 -18 -36 -2 -5 8
-8 23 -8 30 0 65 -16 65 -30 0 -5 -16 -6 -35 -3 -24 4 -35 2 -35 -7 0 -7 7
-10 16 -6 8 3 25 1 36 -5 16 -8 23 -8 29 2 7 11 9 11 9 -1 1 -9 5 -6 10 8 10
23 18 26 44 16 25 -10 19 -22 -9 -16 -18 3 -25 0 -25 -12 0 -9 5 -16 10 -16 6
0 10 6 10 13 0 8 3 8 8 1 11 -16 41 -24 47 -13 4 5 12 6 18 2 15 -10 42 -12
186 -17 105 -3 116 -6 131 -26 10 -13 18 -42 18 -67 1 -34 -3 -46 -21 -57 -27
-17 -143 -27 -176 -15 -14 6 -28 6 -35 0 -6 -5 -31 -11 -54 -13 -23 -2 -42 -7
-41 -13 0 -5 -9 -13 -21 -17 -16 -6 -21 -14 -17 -28 3 -11 1 -23 -4 -26 -6 -3
-5 -11 2 -20 9 -11 8 -18 -2 -31 -10 -11 -10 -17 -3 -20 6 -2 9 -14 7 -27 -4
-20 1 -26 29 -34 45 -14 288 -24 288 -12 0 5 12 -2 26 -17 14 -14 23 -31 20
-38 -2 -7 0 -17 6 -23 6 -6 6 -12 -1 -16 -5 -4 -8 -13 -5 -20 12 -30 -50 -38
-248 -34 -199 5 -257 16 -300 55 -10 9 -18 13 -18 9 0 -3 -12 2 -27 11 -34 22
-97 83 -86 83 4 0 1 4 -7 9 -8 6 -19 7 -24 3 -19 -11 -214 -2 -271 13 -25 7
-26 9 -10 15 14 5 8 9 -28 18 -26 7 -47 17 -47 22 0 6 5 10 10 10 6 0 10 5 10
10 0 6 -7 10 -15 10 -8 0 -15 7 -15 15 0 8 5 15 12 15 21 0 -7 21 -31 23 -11
1 -21 7 -21 14 0 6 9 10 20 8 23 -4 36 10 18 21 -6 4 -36 8 -65 8 -29 1 -54 5
-56 10 -1 6 26 9 62 7 45 -2 62 1 59 9 -4 12 -90 23 -160 21 -20 -1 -39 3 -43
9 -4 6 29 10 96 10 135 0 119 18 -19 22 -123 3 -143 23 -25 26 89 2 111 11 32
14 -30 0 -58 2 -64 3 -5 2 -18 3 -28 4 -30 2 -8 21 24 21 16 0 29 4 29 9 0 4
-10 8 -22 8 -44 1 -50 3 -45 18 4 8 2 17 -3 20 -5 3 -7 37 -5 75 3 61 -6 93
-21 77 -6 -5 -12 -51 -16 -113 -2 -21 -7 -42 -13 -46 -6 -4 -2 -8 8 -8 9 0 17
-7 17 -16 0 -10 -6 -14 -15 -10 -8 3 -15 1 -15 -4 0 -6 7 -10 15 -10 8 0 15
-4 15 -10 0 -10 -18 -14 -50 -11 -8 0 -5 -4 8 -11 15 -8 21 -17 16 -30 -3 -11
0 -18 8 -18 8 0 23 -7 34 -15 18 -14 15 -15 -31 -10 -34 4 -45 3 -35 -3 8 -6
29 -11 45 -13 32 -3 55 -16 55 -30 0 -4 -15 -3 -32 2 -18 5 -46 9 -63 9 -25
-1 -27 -2 -13 -11 10 -5 31 -11 48 -12 16 -1 30 -4 30 -7 0 -3 10 -6 21 -7 12
-1 27 -7 33 -14 11 -11 -14 -9 -84 7 -14 3 -36 8 -49 11 -15 4 -22 2 -17 -5 6
-11 107 -45 132 -45 8 0 14 -4 14 -9 0 -12 -18 -10 -87 11 -35 11 -63 15 -63
11 0 -5 4 -11 9 -14 4 -3 6 -16 4 -29 -6 -29 31 -172 62 -243 57 -128 187
-284 301 -359 153 -102 301 -147 484 -148 241 -1 442 79 610 243 124 120 206
265 246 436 20 86 13 296 -14 394 -24 90 -108 258 -149 299 -19 18 -38 44 -43
57 -5 12 -22 31 -37 40 -15 10 -48 34 -72 53 -48 38 -84 59 -143 86 -21 10
-38 21 -38 26 0 5 -3 8 -7 7 -14 -4 -83 23 -83 33 0 5 -19 8 -42 7 -24 -1 -63
5 -88 12 -46 13 -184 22 -194 12z m109 -22 c4 -6 -10 -10 -34 -10 -23 0 -41 5
-41 10 0 6 15 10 34 10 19 0 38 -4 41 -10z m-192 -7 c-7 -2 -21 -2 -30 0 -10
3 -4 5 12 5 17 0 24 -2 18 -5z m197 -113 c0 -5 -4 -10 -10 -10 -5 0 -10 5 -10
10 0 6 5 10 10 10 6 0 10 -4 10 -10z m-435 -10 c-3 -5 -11 -10 -16 -10 -6 0
-7 5 -4 10 3 6 11 10 16 10 6 0 7 -4 4 -10z m415 -20 c0 -5 -5 -10 -11 -10 -5
0 -7 5 -4 10 3 6 8 10 11 10 2 0 4 -4 4 -10z m160 -36 c0 -2 -15 -4 -32 -4
-23 0 -29 3 -19 9 12 8 51 4 51 -5z m-96 -5 c-6 -10 22 -19 46 -14 11 2 20 0
20 -6 0 -5 -18 -9 -40 -9 -28 0 -40 4 -40 14 0 8 -6 16 -12 19 -7 3 -3 4 9 4
12 -1 20 -4 17 -8z m50 -71 c-4 -6 -10 -5 -15 3 -14 22 -10 33 6 19 8 -7 12
-17 9 -22z m-150 -7 c3 -4 3 -11 0 -14 -8 -8 -34 3 -34 14 0 11 27 12 34 0z
m266 0 c0 -5 -9 -7 -20 -4 -11 3 -20 7 -20 9 0 2 9 4 20 4 11 0 20 -4 20 -9z
m-45 -31 c3 -5 -1 -10 -9 -10 -9 0 -16 5 -16 10 0 6 4 10 9 10 6 0 13 -4 16
-10z m55 -50 c0 -5 -9 -6 -20 -3 -11 3 -17 9 -15 14 7 10 35 1 35 -11z m-20
-40 c0 -5 -9 -6 -20 -3 -11 3 -20 9 -20 13 0 5 9 6 20 3 11 -3 20 -9 20 -13z
m-89 -16 c19 -3 43 -7 54 -9 11 -1 23 -3 28 -4 4 0 7 -5 7 -11 0 -5 -13 -7
-30 -5 -21 2 -30 -1 -30 -11 0 -8 6 -14 14 -14 8 0 18 -5 21 -11 5 -7 -3 -9
-24 -6 -26 5 -31 2 -32 -16 -1 -21 -2 -21 -6 -2 -3 11 -10 23 -17 28 -13 8 13
29 26 21 4 -3 8 -1 8 5 0 6 -16 13 -35 17 -21 4 -35 12 -35 21 0 8 4 12 8 9 5
-3 24 -8 43 -12z m-81 -95 c0 -5 -4 -7 -10 -4 -5 3 -10 -2 -10 -11 0 -10 -3
-15 -6 -11 -9 9 3 37 16 37 5 0 10 -5 10 -11z m197 -19 c13 0 23 -3 23 -8 0
-4 -20 -6 -44 -4 -37 3 -43 6 -33 17 7 8 16 10 22 4 5 -5 19 -9 32 -9z m-137
0 c0 -5 -5 -10 -11 -10 -5 0 -7 5 -4 10 3 6 8 10 11 10 2 0 4 -4 4 -10z m-50
-40 c0 -5 -4 -10 -10 -10 -5 0 -10 5 -10 10 0 6 5 10 10 10 6 0 10 -4 10 -10z
m-769 -268 c-7 -2 -18 1 -23 6 -8 8 -4 9 13 5 13 -4 18 -8 10 -11z m76 -54
c-3 -8 -6 -5 -6 6 -1 11 2 17 5 13 3 -3 4 -12 1 -19z m-172 -53 c32 -11 35
-14 15 -14 -27 0 -95 27 -70 28 8 0 33 -6 55 -14z m10 -53 c-3 -3 -11 0 -18 7
-9 10 -8 11 6 5 10 -3 15 -9 12 -12z"/>
<path d="M531 2036 c-28 -30 -51 -59 -51 -63 0 -5 22 -31 49 -57 l50 -49 60
58 c33 32 58 62 55 67 -4 5 -24 -7 -45 -28 -33 -32 -40 -35 -54 -24 -14 12
-12 17 21 51 21 21 33 42 29 49 -5 7 -18 -1 -40 -26 -22 -24 -38 -35 -49 -31
-24 10 -19 25 19 58 31 28 38 49 16 49 -5 0 -31 -24 -60 -54z"/>
<path d="M1875 2030 l-49 -50 24 -25 c14 -15 30 -23 41 -20 9 3 39 -8 68 -26
44 -28 55 -31 76 -21 31 14 32 36 2 83 -19 31 -97 109 -109 109 -2 0 -26 -22
-53 -50z m118 -42 c24 -37 -25 -67 -53 -33 -10 13 -9 19 5 35 20 22 33 22 48
-2z"/>
<path d="M1248 2033 c7 -3 16 -2 19 1 4 3 -2 6 -13 5 -11 0 -14 -3 -6 -6z"/>
<path d="M406 1892 c-15 -17 -15 -23 -1 -62 8 -23 15 -44 15 -46 0 -2 -16 -4
-36 -4 -92 0 -100 -48 -17 -102 51 -33 59 -35 67 -21 6 12 3 21 -12 33 -25 21
-19 30 18 30 40 0 54 22 46 71 l-7 42 25 -17 c24 -15 26 -15 36 3 9 17 3 24
-47 55 -32 20 -60 36 -64 36 -3 0 -13 -8 -23 -18z"/>
<path d="M2033 1833 c-29 -3 -43 -9 -43 -19 0 -8 7 -14 15 -14 18 0 77 -79 71
-95 -2 -7 6 -24 18 -39 l21 -28 35 71 c28 59 32 76 24 98 -8 25 -15 28 -54 29
-25 1 -64 -1 -87 -3z m87 -34 c0 -16 -20 -49 -30 -49 -5 0 -14 10 -21 21 -9
17 -8 23 2 30 19 12 49 11 49 -2z"/>
<path d="M1350 1770 c0 -5 5 -10 10 -10 6 0 10 5 10 10 0 6 -4 10 -10 10 -5 0
-10 -4 -10 -10z"/>
<path d="M1381 1764 c0 -11 3 -14 6 -6 3 7 2 16 -1 19 -3 4 -6 -2 -5 -13z"/>
<path d="M1210 1740 c0 -5 7 -10 15 -10 8 0 15 5 15 10 0 6 -7 10 -15 10 -8 0
-15 -4 -15 -10z"/>
<path d="M1300 1736 c0 -6 9 -12 20 -13 11 -1 20 2 20 6 0 5 -9 11 -20 14 -12
3 -20 0 -20 -7z"/>
<path d="M1350 1730 c0 -5 5 -10 10 -10 6 0 10 5 10 10 0 6 -4 10 -10 10 -5 0
-10 -4 -10 -10z"/>
<path d="M1380 1725 c0 -6 9 -11 20 -12 11 -1 20 4 20 10 0 7 -9 13 -20 13
-11 0 -20 -5 -20 -11z"/>
<path d="M1140 1710 c0 -5 5 -10 10 -10 6 0 10 5 10 10 0 6 -4 10 -10 10 -5 0
-10 -4 -10 -10z"/>
<path d="M1182 1704 c10 -10 20 -15 24 -12 3 4 -5 12 -18 18 -22 12 -22 12 -6
-6z"/>
<path d="M1160 1660 c0 -5 5 -10 10 -10 6 0 10 5 10 10 0 6 -4 10 -10 10 -5 0
-10 -4 -10 -10z"/>
<path d="M2168 1642 c-35 -11 -48 -21 -48 -35 0 -16 5 -18 40 -12 22 4 40 4
40 2 0 -3 -9 -26 -20 -52 -24 -55 -24 -65 -7 -90 14 -17 16 -17 80 0 68 18 72
21 61 48 -4 12 -11 13 -35 5 -17 -6 -33 -8 -36 -4 -3 3 4 28 15 56 16 38 19
57 12 75 -11 29 -32 31 -102 7z"/>
<path d="M261 1618 c-20 -54 -33 -130 -24 -139 13 -13 122 -43 129 -36 13 12
52 157 44 162 -11 7 -16 -1 -30 -53 -8 -32 -15 -42 -28 -40 -18 4 -20 23 -8
76 12 51 -12 39 -25 -13 -9 -35 -16 -45 -31 -45 -18 0 -20 5 -15 33 4 17 9 42
13 55 4 14 2 22 -5 22 -6 0 -15 -10 -20 -22z"/>
<path d="M1095 1580 c-3 -5 -1 -10 4 -10 6 0 11 5 11 10 0 6 -2 10 -4 10 -3 0
-8 -4 -11 -10z"/>
<path d="M1170 1569 c0 -5 5 -7 10 -4 6 3 10 8 10 11 0 2 -4 4 -10 4 -5 0 -10
-5 -10 -11z"/>
<path d="M1240 1560 c0 -5 11 -10 25 -10 14 0 25 5 25 10 0 6 -11 10 -25 10
-14 0 -25 -4 -25 -10z"/>
<path d="M810 1342 c0 -277 -16 -256 199 -260 l156 -4 26 -42 c31 -50 104
-101 179 -124 43 -13 95 -17 240 -17 l185 0 0 40 0 40 -160 5 c-88 3 -168 10
-178 16 -41 24 -58 137 -34 219 20 64 52 75 230 75 l147 0 0 41 0 41 -202 -4
-203 -3 -65 -31 c-83 -39 -134 -83 -154 -134 -15 -39 -17 -40 -65 -40 -86 0
-81 -12 -81 206 l0 194 -110 0 -110 0 0 -218z"/>
<path d="M1140 1524 c0 -8 5 -12 10 -9 6 3 10 10 10 16 0 5 -4 9 -10 9 -5 0
-10 -7 -10 -16z"/>
<path d="M1190 1520 c0 -5 5 -10 10 -10 6 0 10 5 10 10 0 6 -4 10 -10 10 -5 0
-10 -4 -10 -10z"/>
<path d="M1111 1484 c0 -11 3 -14 6 -6 3 7 2 16 -1 19 -3 4 -6 -2 -5 -13z"/>
<path d="M1160 1474 c0 -8 5 -12 10 -9 6 3 10 10 10 16 0 5 -4 9 -10 9 -5 0
-10 -7 -10 -16z"/>
<path d="M1210 1471 c0 -5 11 -11 25 -13 17 -4 25 -1 25 8 0 8 -11 14 -25 14
-14 0 -25 -4 -25 -9z"/>
<path d="M1130 1430 c0 -5 5 -10 10 -10 6 0 10 5 10 10 0 6 -4 10 -10 10 -5 0
-10 -4 -10 -10z"/>
<path d="M1180 1425 c0 -8 5 -15 10 -15 6 0 10 7 10 15 0 8 -4 15 -10 15 -5 0
-10 -7 -10 -15z"/>
<path d="M2288 1404 c-26 -23 -47 -34 -68 -34 -24 0 -30 -4 -30 -22 0 -38 15
-51 45 -44 20 5 39 0 72 -19 55 -33 70 -23 24 16 l-35 29 22 23 c21 23 30 71
14 81 -4 2 -24 -11 -44 -30z"/>
<path d="M1230 1421 c0 -6 5 -13 10 -16 6 -3 10 1 10 9 0 9 -4 16 -10 16 -5 0
-10 -4 -10 -9z"/>
<path d="M1266 1415 c4 -8 8 -15 10 -15 2 0 4 7 4 15 0 8 -4 15 -10 15 -5 0
-7 -7 -4 -15z"/>
<path d="M1290 1416 c0 -9 5 -16 10 -16 6 0 10 4 10 9 0 6 -4 13 -10 16 -5 3
-10 -1 -10 -9z"/>
<path d="M336 1413 c-3 -3 -6 -17 -6 -29 0 -23 -2 -23 -82 -21 l-83 2 0 -40 0
-40 85 -7 c47 -3 89 -2 94 3 13 12 20 125 9 132 -6 4 -13 4 -17 0z"/>
<path d="M1340 1409 c0 -5 5 -7 10 -4 6 3 10 8 10 11 0 2 -4 4 -10 4 -5 0 -10
-5 -10 -11z"/>
<path d="M1100 1384 c0 -8 5 -12 10 -9 6 4 8 11 5 16 -9 14 -15 11 -15 -7z"/>
<path d="M1150 1374 c0 -8 5 -12 10 -9 6 3 10 10 10 16 0 5 -4 9 -10 9 -5 0
-10 -7 -10 -16z"/>
<path d="M1206 1381 c-4 -7 -5 -15 -2 -18 9 -9 19 4 14 18 -4 11 -6 11 -12 0z"/>
<path d="M1235 1370 c3 -5 8 -10 11 -10 2 0 4 5 4 10 0 6 -5 10 -11 10 -5 0
-7 -4 -4 -10z"/>
<path d="M1260 1376 c0 -2 7 -7 16 -10 8 -3 12 -2 9 4 -6 10 -25 14 -25 6z"/>
<path d="M1136 1342 c-13 -12 -5 -20 19 -18 14 0 25 4 25 7 0 9 -37 18 -44 11z"/>
<path d="M1110 1285 c0 -8 5 -15 10 -15 6 0 10 7 10 15 0 8 -4 15 -10 15 -5 0
-10 -7 -10 -15z"/>
<path d="M1085 1240 c3 -5 8 -10 11 -10 2 0 4 5 4 10 0 6 -5 10 -11 10 -5 0
-7 -4 -4 -10z"/>
<path d="M1111 1234 c0 -11 3 -14 6 -6 3 7 2 16 -1 19 -3 4 -6 -2 -5 -13z"/>
<path d="M397 705 c-38 -24 -71 -45 -74 -48 -2 -3 6 -21 19 -40 l24 -36 80 52
81 52 -20 33 c-10 17 -24 32 -30 31 -7 0 -43 -20 -80 -44z"/>
<path d="M444 599 c-27 -23 -50 -48 -52 -55 -6 -23 18 -25 47 -5 l29 21 6 -23
c3 -12 6 -40 6 -62 0 -74 34 -84 98 -29 51 43 53 37 7 -26 l-35 -48 26 -21 26
-21 20 25 20 25 39 -27 c21 -16 39 -34 39 -41 0 -27 31 -71 63 -91 46 -28 119
-29 147 -1 25 25 25 37 1 76 -32 52 -129 82 -180 54 -14 -7 -27 -3 -54 18 -40
30 -41 31 -27 52 7 12 16 9 54 -18 24 -18 47 -28 50 -23 7 10 -111 101 -131
101 -7 0 -13 6 -13 14 0 7 -6 19 -13 25 -11 8 -19 5 -37 -14 -13 -14 -27 -25
-31 -25 -5 0 -9 30 -11 66 -2 55 -7 69 -24 81 -20 13 -26 11 -70 -28z m425
-283 c14 -17 5 -59 -17 -79 -12 -11 -24 -12 -41 -6 -20 8 -23 14 -17 41 11 55
48 77 75 44z"/>
<path d="M2028 603 c-27 -33 -28 -40 -3 -104 25 -62 31 -88 19 -76 -4 3 -26
-9 -49 -28 -23 -19 -47 -35 -53 -35 -5 0 -22 14 -36 31 -30 35 -25 55 24 91
31 22 38 38 19 38 -15 0 -80 -57 -101 -89 -49 -72 17 -140 95 -100 40 21 137
104 137 117 0 21 54 82 72 82 16 0 56 46 47 54 -5 4 -135 36 -147 36 -5 0 -16
-8 -24 -17z m66 -59 c14 -5 14 -8 -1 -30 -8 -13 -19 -24 -23 -24 -6 0 -30 44
-30 55 0 7 36 6 54 -1z"/>
<path d="M1755 388 c-28 -15 -28 -15 -20 -27 7 -13 65 13 65 29 0 13 -20 12
-45 -2z"/>
<path d="M1617 342 c-43 -44 -45 -52 -14 -52 18 0 29 -11 47 -50 13 -28 28
-50 34 -50 6 0 30 7 53 16 46 18 60 40 18 30 -23 -6 -28 -2 -46 41 -18 43 -19
49 -5 59 23 16 20 27 -6 21 -13 -4 -26 0 -32 9 -10 12 -17 9 -49 -24z"/>
<path d="M1780 342 l-22 -18 21 -42 c24 -47 27 -49 60 -23 l23 18 -23 41 c-13
23 -27 42 -30 42 -4 0 -17 -8 -29 -18z"/>
<path d="M1533 330 c-57 -26 -54 -30 7 -11 28 8 50 19 50 23 0 11 -9 9 -57
-12z"/>
<path d="M956 229 c-9 -40 -15 -73 -14 -75 2 -1 20 -5 41 -9 33 -7 37 -5 37
14 0 29 14 26 42 -9 17 -21 36 -33 63 -37 l38 -6 -26 35 c-33 43 -33 48 -3 48
13 0 29 7 36 15 27 32 -40 69 -161 90 l-36 7 -17 -73z m132 19 c19 -19 14 -28
-18 -28 -23 0 -30 4 -30 20 0 23 29 27 48 8z"/>
<path d="M1478 273 c-8 -10 -21 -46 -28 -81 -15 -73 -28 -70 -32 8 -3 50 -5
55 -28 58 -18 3 -32 -5 -55 -33 l-31 -37 -28 37 c-22 28 -34 35 -54 33 -26 -3
-27 -5 -30 -75 -3 -68 -1 -73 18 -73 15 0 20 6 20 25 0 31 7 31 32 0 11 -14
30 -25 43 -25 13 0 32 11 43 25 25 31 32 31 32 0 0 -22 4 -25 35 -25 22 0 41
7 54 21 16 18 34 23 91 25 39 2 75 6 80 9 6 4 -13 33 -41 66 -56 64 -91 76
-121 42z m62 -84 c0 -8 -50 -22 -56 -16 -2 2 -1 18 2 36 l7 32 23 -22 c13 -12
24 -26 24 -30z"/>
</g>
</svg>
